Hardware Wars is a 1977 short film parody of the classic science fiction film Star Wars. The thirteen-minute film, which premiered in theatres only seven months after Star Wars, consists of inside jokes and visual puns that heavily depend upon audience familiarity with the original.


Video
ID                                       : 1
Format                                   : AVC
Format/Info                              : Advanced Video Codec
Format profile                           : Main@L3.0
Format settings, CABAC                   : Yes
Format settings, ReFrames                : 4 frames
Codec ID                                 : avc1
Codec ID/Info                            : Advanced Video Coding
Duration                                 : 13mn 6s
Bit rate mode                            : Variable
Bit rate                                 : 1 510 Kbps
Width                                    : 720 pixels
Height                                   : 480 pixels
Display aspect ratio                     : 4:3
Original display aspect ratio            : 4:3
Frame rate mode                          : Constant
Frame rate                               : 29.970 fps
Standard                                 : NTSC
Color space                              : YUV
Chroma subsampling                       : 4:2:0
Bit depth                                : 8 bits
Scan type                                : Progressive
Bits/(Pixel*Frame)                       : 0.146
Stream size                              : 142 MiB (87%)
Writing library                          : x264 core 120


Audio
ID                                       : 2
Format                                   : AC-3
Format/Info                              : Audio Coding 3
Mode extension                           : CM (complete main)
Format settings, Endianness              : Big
Codec ID                                 : ac-3
Duration                                 : 13mn 6s
Bit rate mode                            : Constant
Bit rate                                 : 224 Kbps
Channel(s)                               : 2 channels
Channel positions                        : Front: L R
Sampling rate                            : 48.0 KHz
Bit depth                                : 16 bits
Compression mode                         : Lossy
Delay relative to video                  : 67ms
Stream size                              : 21.0 MiB (13%)
Language                                 : English
Encoded date                             : UTC 2012-11-27 17:02:39
Tagged date                              : UTC 2012-11-27 17:13:29